<?xml version="1.0" standalone="no"?>
<!DOCTYPE svg PUBLIC "-//W3C//DTD SVG 1.1//EN" "http://www.w3.org/Graphics/SVG/1.1/DTD/svg11.dtd" >
<svg>
<metadata>
Created by FontForge 20090622 at Thu Apr 30 08:36:53 2020
 By deploy user
Copyright 2019 Adobe Systems Incorporated. All rights reserved.
</metadata>
<defs>
<font id="Amare-Linnea" horiz-adv-x="451" >
  <font-face 
    font-family="Amare Linnea"
    font-weight="400"
    font-stretch="normal"
    units-per-em="1000"
    panose-1="0 0 0 0 0 0 0 0 0 0"
    ascent="750"
    descent="-250"
    x-height="514"
    cap-height="714"
    bbox="-39 -213 851 950"
    underline-thickness="50"
    underline-position="-100"
    unicode-range="U+0020-U+2026"
  />
<missing-glyph horiz-adv-x="270" 
 />
    <glyph glyph-name=".notdef" horiz-adv-x="270" 
 />
    <glyph glyph-name=".null" horiz-adv-x="0" 
 />
    <glyph glyph-name="nonmarkingreturn" horiz-adv-x="333" 
 />
    <glyph glyph-name="space" unicode=" " horiz-adv-x="270" 
 />
    <glyph glyph-name="exclam" unicode="!" horiz-adv-x="177" 
d="M85 714h20v-532h-20v532zM85 98h20v-98h-20v98z" />
    <glyph glyph-name="quotedbl" unicode="&#x22;" horiz-adv-x="256" 
d="M76 489v225h21v-225h-21zM172 489v225h20v-225h-20z" />
    <glyph glyph-name="numbersign" unicode="#" horiz-adv-x="493" 
d="M200 446h142l26 234h20l-26 -234h99v-20h-103l-21 -177h100v-20h-103l-26 -229h-21l26 229h-142l-27 -229h-20l26 229h-106v20h111l20 177h-107v20h111l27 234h20zM317 249l20 177h-142l-20 -177h142z" />
    <glyph glyph-name="dollar" unicode="$" horiz-adv-x="542" 
d="M475 500q-3 102 -53 154t-134 56v-330q51 -16 80.5 -28.5t65.5 -36t53 -58t17 -82.5q0 -94 -64 -142t-152 -49v-88h-20v89q-102 4 -162.5 60.5t-58.5 178.5h20q0 -212 201 -221v362q-41 12 -62.5 19.5t-54 23t-48.5 32.5t-29 44.5t-13 62.5q0 95 60.5 138.5t146.5 45.5
v81h20v-82q92 -4 147.5 -61t60.5 -169h-21zM81 547q0 -29 11 -52.5t26 -38.5t43.5 -29.5t49 -22t57.5 -19.5v326q-79 -2 -133 -40t-54 -124zM483 176q0 34 -11.5 61.5t-27.5 45t-44.5 33t-52 24t-59.5 19.5v-356q50 0 92.5 17t72.5 57.5t30 98.5z" />
    <glyph glyph-name="percent" unicode="%" horiz-adv-x="602" 
d="M517 714l-405 -747h-23l405 747h23zM32 519q0 77 35 125t96 48q64 0 98.5 -47.5t34.5 -124.5q0 -72 -35.5 -121t-97.5 -49q-64 0 -97.5 49t-33.5 120zM53 519q0 -65 28 -107t82 -42t83.5 42.5t29.5 106.5q0 71 -28.5 112t-84.5 41q-55 0 -82.5 -41.5t-27.5 -111.5z
M318 157q0 77 34.5 125t96.5 48q63 0 98 -47.5t35 -124.5q0 -72 -35.5 -120.5t-97.5 -48.5q-64 0 -97.5 48t-33.5 120zM338 157q0 -64 28.5 -106.5t82.5 -42.5q53 0 83 43t30 106q0 71 -28.5 112t-84.5 41t-83.5 -41.5t-27.5 -111.5z" />
    <glyph glyph-name="ampersand" unicode="&#x26;" horiz-adv-x="508" 
d="M478 0l-74 110q-60 -126 -177 -126q-69 0 -122 48.5t-53 127.5q0 41 13.5 76.5t43 66.5t49 47t58.5 44h-1l-25 38q-21 32 -31.5 49.5t-22 47t-11.5 52.5q0 65 37.5 99t88.5 34q53 0 89 -36t36 -97q0 -37 -18 -71t-36.5 -52t-52.5 -46q-2 -2 -12 -10t-15 -13h1l158 -235
q22 57 19 123h20q1 -72 -25 -144l89 -133h-26zM145 583q0 -30 19 -66.5t68 -111.5l15 13q31 25 50.5 43.5t39 52.5t19.5 67q0 50 -30.5 81.5t-74.5 31.5t-75 -30.5t-31 -80.5zM211 366q-33 -24 -50.5 -39t-42 -42t-35.5 -57.5t-11 -67.5q0 -73 46 -115t109 -42
q109 0 165 129l-166 245z" />
    <glyph glyph-name="quotesingle" unicode="'" horiz-adv-x="162" 
d="M98 714v-225h-21v225h21z" />
    <glyph glyph-name="parenleft" unicode="(" horiz-adv-x="209" 
d="M191 731q-99 -209 -99 -449q0 -244 100 -458h-20q-52 119 -76 225.5t-24 232.5q0 240 99 449h20z" />
    <glyph glyph-name="parenright" unicode=")" horiz-adv-x="209" 
d="M30 -176q98 210 98 448q0 244 -99 459h20q51 -118 75.5 -225.5t24.5 -233.5q0 -239 -99 -448h-20z" />
    <glyph glyph-name="asterisk" unicode="*" horiz-adv-x="319" 
d="M174 575l112 43l4 -20l-112 -43h1l71 -109l-16 -14l-70 107l-71 -102l-16 14l75 104h1l-112 43l6 20l107 -43v139h20v-139z" />
    <glyph glyph-name="plus" unicode="+" horiz-adv-x="530" 
d="M281 506v-243h206v-20h-206v-243h-20v243h-206v20h206v243h20z" />
    <glyph glyph-name="comma" unicode="," horiz-adv-x="256" 
d="M112 -115h-20l32 213h20z" />
    <glyph glyph-name="hyphen" unicode="-" horiz-adv-x="388" 
d="M338 314v-20h-275v20h275z" />
    <glyph glyph-name="period" unicode="." horiz-adv-x="256" 
d="M124 0v98h20v-98h-20z" />
    <glyph glyph-name="slash" unicode="/" horiz-adv-x="303" 
d="M286 731h21l-278 -747h-20z" />
    <glyph glyph-name="zero" unicode="0" horiz-adv-x="497" 
d="M474 359q0 -69 -11 -131t-35 -117.5t-68.5 -88.5t-105.5 -33q-60 0 -104.5 33t-69 88.5t-35.5 117.5t-11 131t11 131t35.5 118t69 89t104.5 33t105 -33t69 -89t35 -118t11 -131zM454 359q0 62 -9.5 119.5t-31 112t-62.5 87t-97 32.5t-96.5 -32.5t-62 -87t-31 -112
t-9.5 -119.5t9.5 -119.5t31 -112t62 -87t96.5 -32.5t97 32.5t62.5 87t31 112t9.5 119.5z" />
    <glyph glyph-name="one" unicode="1" horiz-adv-x="414" 
d="M268 714q27 -2 27 -44v-670h-21v662q0 25 -9 28q-10 3 -43 -27q-44 -40 -68.5 -53.5t-53.5 -13.5h-4v20h7q25 0 44.5 12t63.5 51q40 36 57 35z" />
    <glyph glyph-name="two" unicode="2" horiz-adv-x="503" 
d="M469 0h-408q-1 49 28 100.5t66 88t98 87.5l28.5 23.5l30 25l27.5 24t28 27l23 26.5t21.5 30.5l14.5 31t11 35.5t3 37q0 77 -46.5 125.5t-116.5 48.5q-88 0 -136.5 -57t-48.5 -153h-21q1 110 56 170t150 60q77 0 130 -54t53 -140q0 -35 -13 -69t-27 -57t-47 -56
t-47.5 -45.5t-55.5 -45.5l-17 -14q-49 -42 -78 -69.5t-60 -73.5t-34 -86h388v-20z" />
    <glyph glyph-name="three" unicode="3" horiz-adv-x="531" 
d="M340 386q60 -12 105.5 -61t45.5 -129q0 -98 -61.5 -155t-149.5 -57q-57 0 -102.5 23.5t-72 60.5t-41 77t-16.5 79h20q6 -90 63.5 -155.5t148.5 -65.5q77 0 133.5 52t56.5 141q0 86 -55.5 133.5t-126.5 47.5h-46v20h46q69 0 119.5 38.5t50.5 119.5q-2 80 -52.5 117.5
t-121.5 37.5q-89 0 -140.5 -57.5t-51.5 -152.5h-21q1 109 59.5 169.5t153.5 60.5q82 0 138.5 -43t56.5 -132q0 -70 -40 -114.5t-99 -54.5z" />
    <glyph glyph-name="four" unicode="4" horiz-adv-x="541" 
d="M408 208h110v-20h-110v-188h-21v188h-289q-41 0 -41 28q0 19 21 51l250 417q19 32 47 30q12 -1 22.5 -11t10.5 -30v-465zM387 208v454q0 28 -13 31q-13 4 -28 -20l-253 -422q-14 -23 -13 -30q1 -13 26 -13h281z" />
    <glyph glyph-name="five" unicode="5" horiz-adv-x="510" 
d="M264 487q95 0 152.5 -66.5t57.5 -175.5q0 -115 -60 -188t-155 -73q-96 0 -154.5 65.5t-56.5 174.5h21q-2 -101 50.5 -161t140.5 -60q87 0 140 68t53 174q0 99 -51.5 160t-137.5 61q-55 0 -100.5 -28.5t-70.5 -81.5h-25l59 320q8 38 40 38h283v-20h-282q-18 0 -21 -26
l-50 -272q26 42 70.5 66.5t96.5 24.5z" />
    <glyph glyph-name="six" unicode="6" horiz-adv-x="493" 
d="M451 550q-9 46 -28 79.5t-44 50t-49 23.5t-49 7q-63 0 -107 -39t-65.5 -103.5t-30 -130.5t-6.5 -137q16 87 70.5 135t127.5 48q84 0 148.5 -70t64.5 -177q0 -106 -63.5 -179t-149.5 -73q-46 0 -83 18.5t-59.5 44t-39 66t-23.5 69.5t-11 70.5t-4 53.5v33q0 73 11.5 138
t36.5 124.5t72 95t112 35.5q78 0 130 -52t60 -130h-21zM462 236q0 94 -56 160.5t-136 66.5q-79 0 -133.5 -66t-54.5 -161t54.5 -164t133.5 -69t135.5 69t56.5 164z" />
    <glyph glyph-name="seven" unicode="7" horiz-adv-x="493" 
d="M465 690q3 -20 -19 -55l-62 -97q-83 -129 -127 -257.5t-44 -280.5h-20q-3 274 173 549l65 102q15 25 12 33q-4 10 -29 10h-356v20h368q35 0 39 -24z" />
    <glyph glyph-name="eight" unicode="8" horiz-adv-x="525" 
d="M332 394q74 -8 116 -60t42 -134q0 -106 -63.5 -161t-160.5 -55q-96 0 -159.5 55t-63.5 161q0 79 43.5 132t114.5 65q-53 10 -90 52t-37 101q0 92 53 136t139 44q87 0 140.5 -44t53.5 -136q0 -61 -36.5 -103t-91.5 -50h2v-3h-2zM438 550q0 85 -48.5 122.5t-123.5 37.5
q-74 0 -122.5 -37.5t-48.5 -122.5q0 -72 51.5 -109t119.5 -37q69 0 120.5 37t51.5 109zM469 200q0 96 -57.5 139.5t-145.5 43.5t-145 -43.5t-57 -139.5q0 -98 57.5 -147.5t144.5 -49.5t145 49.5t58 147.5z" />
    <glyph glyph-name="nine" unicode="9" horiz-adv-x="509" 
d="M79 169q11 -61 42.5 -99t63.5 -50t67 -12q62 0 106 39t65 104.5t29.5 129.5t7.5 134q-16 -79 -73.5 -129t-129.5 -50q-84 0 -149 70t-65 177q0 106 63.5 177t150.5 71q62 0 107.5 -29t70.5 -79.5t35.5 -111t8.5 -131.5q-13 -392 -228 -392q-77 0 -130.5 51.5t-62.5 129.5
h21zM449 483q-5 103 -56 165.5t-136 62.5q-79 0 -135 -66.5t-56 -161.5q0 -94 55.5 -160.5t135.5 -66.5q81 0 138.5 67t53.5 160z" />
    <glyph glyph-name="colon" unicode=":" horiz-adv-x="256" 
d="M124 514h20v-98h-20v98zM124 98h20v-98h-20v98z" />
    <glyph glyph-name="semicolon" unicode=";" horiz-adv-x="256" 
d="M124 514h20v-98h-20v98zM144 0q0 -87 -40 -120v21q20 24 20 99v98h20v-98z" />
    <glyph glyph-name="less" unicode="&#x3c;" horiz-adv-x="530" 
d="M53 241v24l436 250v-22l-418 -240l418 -240v-21z" />
    <glyph glyph-name="equal" unicode="=" horiz-adv-x="530" 
d="M55 360h432v-20h-432v20zM55 166h432v-20h-432v20z" />
    <glyph glyph-name="greater" unicode="&#x3e;" horiz-adv-x="530" 
d="M53 493v22l436 -250v-24l-436 -249v21l418 240z" />
    <glyph glyph-name="question" unicode="?" horiz-adv-x="445" 
d="M44 500q-3 106 47 168.5t139 62.5q73 0 121 -44t48 -122q0 -42 -15 -79.5t-26 -51.5t-34 -39q-55 -59 -73.5 -100.5t-18.5 -112.5h-21q0 72 22.5 122.5t70.5 98.5q75 75 75 162q0 69 -41.5 107.5t-107.5 38.5q-82 0 -125.5 -56.5t-40.5 -154.5h-20zM211 98h21v-98h-21v98
z" />
    <glyph glyph-name="at" unicode="@" horiz-adv-x="700" 
d="M540 547l-94 -288q-4 -14 -7 -29t-4 -34.5t6.5 -31.5t24.5 -12q55 0 109 77.5t54 181.5q0 124 -72 202.5t-183 78.5q-123 0 -207 -98.5t-84 -240.5q0 -163 83 -254t206 -91q75 0 144.5 44.5t110.5 113.5h21q-41 -80 -118.5 -128.5t-157.5 -48.5q-59 0 -113 22t-98.5 64.5
t-71 114t-26.5 163.5q0 153 91 256t220 103q118 0 196.5 -82.5t78.5 -218.5q0 -111 -59.5 -195t-125.5 -84q-27 0 -40 22t-10 50q-20 -33 -53.5 -52.5t-64.5 -19.5q-49 0 -83 42.5t-34 102.5q0 64 25 129.5t73 112.5t105 47q40 0 72.5 -21.5t45.5 -57.5l19 60h21zM489 456
q-10 47 -41.5 68.5t-68.5 21.5q-74 0 -126.5 -88.5t-52.5 -180.5q0 -54 28.5 -89.5t71.5 -35.5q36 0 71.5 29.5t57.5 90.5q46 137 60 184z" />
    <glyph glyph-name="A" unicode="A" horiz-adv-x="554" 
d="M551 0h-22l-70 204h-360l-70 -204h-22l230 668q16 46 42 46q25 0 41 -46zM452 224l-149 436q-12 34 -24 34t-24 -34l-149 -436h346z" />
    <glyph glyph-name="B" unicode="B" horiz-adv-x="520" 
d="M330 371q65 -6 114 -55t49 -125q0 -93 -63 -142t-166 -49h-177q-33 0 -33 38v638q0 38 33 38h177q92 0 148.5 -44t56.5 -133q0 -68 -40.5 -112.5t-98.5 -53.5zM92 694q-17 0 -17 -26v-286h197q73 0 124 41t51 114q0 79 -48.5 118t-136.5 39h-170zM269 20q90 0 146 43
t56 127q0 81 -59.5 126.5t-139.5 45.5h-197v-316q0 -26 17 -26h177z" />
    <glyph glyph-name="C" unicode="C" horiz-adv-x="608" 
d="M569 224q-4 -41 -20.5 -81t-46 -76.5t-79 -59.5t-110.5 -23q-121 0 -199 103.5t-78 263.5q0 54 9.5 106t32 102t54.5 88t81.5 61t109.5 23q57 0 105 -23.5t77 -59.5t45 -74.5t17 -73.5h-21q-5 81 -69 146t-154 65q-71 0 -125 -34.5t-83.5 -90.5t-44 -115.5t-14.5 -119.5
q0 -143 70 -245.5t187 -102.5q103 0 165.5 65t69.5 156h21z" />
    <glyph glyph-name="D" unicode="D" horiz-adv-x="577" 
d="M274 714q50 0 93 -17t82 -55.5t62 -111.5t23 -173q0 -93 -23.5 -163.5t-64.5 -111.5t-91 -61.5t-107 -20.5h-155q-33 0 -33 38v638q0 38 33 38h181zM252 20q114 0 188 86.5t74 250.5q0 96 -20.5 164.5t-56.5 104.5t-77 52t-90 16h-172q-17 0 -17 -26v-622q0 -26 17 -26
h154z" />
    <glyph glyph-name="E" unicode="E" horiz-adv-x="482" 
d="M470 20v-20h-377q-33 0 -33 38v638q0 38 33 38h373v-20h-368q-17 0 -17 -26v-286h363v-20h-363v-316q0 -26 17 -26h372z" />
    <glyph glyph-name="F" unicode="F" horiz-adv-x="435" 
d="M60 0v676q0 38 33 38h345v-20h-340q-17 0 -17 -26v-286h323v-20h-323v-362h-21z" />
    <glyph glyph-name="G" unicode="G" horiz-adv-x="640" 
d="M558 328q33 0 33 -38v-290h-21v161q-27 -78 -93 -127.5t-152 -49.5q-122 0 -202.5 105t-80.5 264q0 68 16.5 132.5t50 121t91 90.5t132.5 34q57 0 105.5 -23.5t78 -59.5t46 -74.5t17.5 -73.5h-21q-5 81 -70.5 146t-155.5 65q-71 0 -125.5 -34.5t-84.5 -89.5t-45 -115
t-15 -119q0 -142 73.5 -246t191.5 -104q98 0 170.5 76.5t72.5 186.5v16q0 26 -17 26h-208v20h213z" />
    <glyph glyph-name="H" unicode="H" horiz-adv-x="593" 
d="M81 0h-21v714h21v-332h437v332h21v-714h-21v362h-437v-362z" />
    <glyph glyph-name="I" unicode="I" horiz-adv-x="164" 
d="M93 714v-714h-21v714h21z" />
    <glyph glyph-name="J" unicode="J" horiz-adv-x="420" 
d="M361 714v-528q0 -202 -168 -202q-84 0 -123.5 52.5t-39.5 141.5v43h20v-43q0 -175 143 -175q75 0 111.5 45t36.5 153v513h20z" />
    <glyph glyph-name="K" unicode="K" horiz-adv-x="530" 
d="M81 0h-21v714h21v-431l418 431h27l-293 -304l310 -410h-25l-300 397l-138 -144h1v-253z" />
    <glyph glyph-name="L" unicode="L" horiz-adv-x="435" 
d="M98 20h336v-20h-341q-33 0 -33 38v676h21v-668q0 -26 17 -26z" />
    <glyph glyph-name="M" unicode="M" horiz-adv-x="741" 
d="M653 714q12 -1 23.5 -12.5t11.5 -31.5v-670h-21v662q0 27 -15 31q-8 1 -15 -5t-13 -24l-209 -619q-15 -45 -42 -45t-42 45l-208 619q-6 19 -13 24.5t-15 4.5q-15 -4 -15 -31v-662h-21v670q0 20 11.5 31.5t23.5 12.5q32 2 46 -41l209 -617q12 -36 24 -36q11 0 25 36
l208 617q14 43 47 41z" />
    <glyph glyph-name="N" unicode="N" horiz-adv-x="651" 
d="M568 714h21v-670q0 -20 -10.5 -31.5t-22.5 -12.5q-27 -2 -46 30l-388 643q-15 24 -28 20q-13 -3 -13 -31v-662h-21v670q0 20 10.5 31.5t22.5 12.5q28 2 47 -30l387 -643q15 -24 28 -20q13 3 13 31v662z" />
    <glyph glyph-name="O" unicode="O" horiz-adv-x="639" 
d="M41 357q0 103 32 187t97 135.5t153 51.5q131 0 206 -107t75 -267q0 -104 -31.5 -187.5t-96.5 -134.5t-153 -51q-132 0 -207 106.5t-75 266.5zM62 357q2 -157 71.5 -255.5t189.5 -98.5q119 0 189 98.5t72 255.5q-2 157 -72 255.5t-189 98.5q-120 0 -189.5 -98.5
t-71.5 -255.5z" />
    <glyph glyph-name="P" unicode="P" horiz-adv-x="509" 
d="M292 714q90 0 143.5 -50.5t53.5 -144.5q0 -91 -57.5 -142.5t-145.5 -51.5h-205v-325h-21v676q0 38 33 38h199zM295 345q74 0 123.5 47t49.5 127q0 84 -46 129.5t-130 45.5h-194q-17 0 -17 -26v-323h214z" />
    <glyph glyph-name="Q" unicode="Q" horiz-adv-x="639" 
d="M377 -11l247 -46v-20l-344 64l-15 3l-3 1h1q-105 24 -163.5 125t-58.5 241q0 103 32 187t97 135.5t153 51.5q131 0 206 -107t75 -267q0 -142 -59.5 -243.5t-167.5 -124.5zM62 357q2 -157 71.5 -255.5t189.5 -98.5q119 0 189 98.5t72 255.5q-2 157 -72 255.5t-189 98.5
q-120 0 -189.5 -98.5t-71.5 -255.5z" />
    <glyph glyph-name="R" unicode="R" horiz-adv-x="517" 
d="M321 308l184 -308h-25l-177 297q-10 16 -18.5 22t-25.5 6h-178v-325h-21v676q0 38 33 38h192q87 0 144 -50t57 -143q0 -82 -52 -135.5t-127 -59.5q4 -4 14 -18zM295 345q69 0 119.5 50t50.5 126q0 83 -49 128t-131 45h-187q-17 0 -17 -26v-323h214z" />
    <glyph glyph-name="S" unicode="S" horiz-adv-x="545" 
d="M475 500q-3 106 -57 158.5t-144 52.5q-37 0 -69 -8t-61 -25.5t-46 -51t-17 -79.5q0 -44 23.5 -74.5t60.5 -48t82 -31.5t90.5 -30t82.5 -37t60.5 -59.5t23.5 -91.5q0 -95 -65 -143t-153 -48q-109 0 -175 56.5t-64 183.5h20q0 -221 219 -221q80 0 138.5 43.5t58.5 129.5
q0 50 -23.5 85.5t-60.5 54.5t-82 33.5l-90 28.5t-82 32.5t-60.5 53t-23.5 83.5q0 51 19 88t50.5 57t67.5 29.5t76 9.5q98 0 157.5 -57.5t64.5 -173.5h-21z" />
    <glyph glyph-name="T" unicode="T" 
d="M1 714h456v-20h-218v-694h-21v694h-217v20z" />
    <glyph glyph-name="U" unicode="U" horiz-adv-x="563" 
d="M509 714v-448q0 -282 -224 -282q-225 0 -225 282v448h21v-448q0 -263 204 -263t204 263v448h20z" />
    <glyph glyph-name="V" unicode="V" horiz-adv-x="520" 
d="M0 714h21l218 -660q12 -34 24 -34t24 34l219 660h21l-222 -668q-16 -46 -42 -46q-25 0 -41 46z" />
    <glyph glyph-name="W" unicode="W" horiz-adv-x="819" 
d="M820 713l-170 -666q-12 -47 -34 -47t-33 45l-156 605q-1 5 -3 13t-3 12.5t-2.5 9t-3.5 6.5t-5 2q-4 0 -6 -5t-5.5 -20.5t-4.5 -20.5l-156 -602q-11 -45 -33 -45t-34 47l-170 667h22l164 -651q1 -4 2.5 -9.5l2.5 -9t2 -8t2 -7t2.5 -5t3 -3.5t3.5 -1t4 2t3.5 7.5t3 9.5
t3.5 12.5t3 13.5l156 602q6 25 13 35.5t19 10.5t19 -10.5t13 -35.5l157 -602q1 -5 3 -13.5t3.5 -12.5t3 -9.5t3.5 -7.5t4 -2t3.5 1t3 3.5t2.5 5t2 7t2 8l2.5 9t2.5 9.5l164 650h22z" />
    <glyph glyph-name="X" unicode="X" horiz-adv-x="468" 
d="M472 714l-221 -347l232 -367h-25l-220 348l-221 -348h-25l233 367l-220 347h25l208 -328l210 328h24z" />
    <glyph glyph-name="Y" unicode="Y" horiz-adv-x="483" 
d="M500 714l-245 -413v-301h-21v301l-244 413h24l231 -389l232 389h23z" />
    <glyph glyph-name="Z" unicode="Z" 
d="M34 33q1 -13 26 -13h388v-20h-396q-38 0 -40 28q-1 19 20 51l363 572q15 25 12 33q-4 10 -29 10h-356v20h368q35 0 39 -24q3 -20 -19 -55l-363 -572q-14 -23 -13 -30z" />
    <glyph glyph-name="bracketleft" unicode="[" horiz-adv-x="209" 
d="M195 711h-79v-867h79v-20h-99v907h99v-20z" />
    <glyph glyph-name="backslash" unicode="\" horiz-adv-x="303" 
d="M9 731h20l278 -747h-21z" />
    <glyph glyph-name="bracketright" unicode="]" horiz-adv-x="209" 
d="M25 -156h79v867h-79v20h100v-907h-100v20z" />
    <glyph glyph-name="asciicircum" unicode="^" horiz-adv-x="530" 
d="M457 227l-186 429l-186 -429h-21l197 453h20l197 -453h-21z" />
    <glyph glyph-name="underscore" unicode="_" horiz-adv-x="445" 
d="M14 -88h429v-20h-429v20z" />
    <glyph glyph-name="grave" unicode="`" horiz-adv-x="223" 
d="M223 633v-20l-223 81v20z" />
    <glyph glyph-name="a" unicode="a" horiz-adv-x="435" 
d="M60 372q6 154 163 154q66 0 108 -34.5t44 -112.5v-276q0 -68 35 -103h-26q-30 30 -30 105v5q-16 -51 -62.5 -86t-110.5 -35q-69 0 -108.5 35.5t-39.5 102.5q0 141 174 155q37 3 54 5t39.5 7t31 13t15.5 22t7 35q0 142 -131 142q-69 0 -103.5 -31.5t-38.5 -102.5h-21z
M179 8q81 0 128 55.5t47 132.5v108q-5 -7 -11.5 -12.5t-16.5 -9.5t-18 -6.5t-22.5 -4.5t-22.5 -3t-25.5 -2.5t-24.5 -2.5q-80 -8 -120 -36t-40 -100q0 -50 30.5 -84.5t95.5 -34.5z" />
    <glyph glyph-name="b" unicode="b" horiz-adv-x="482" 
d="M81 377q18 69 63.5 109t112.5 40q87 0 137 -78.5t50 -191.5q0 -118 -50.5 -192.5t-136.5 -74.5q-63 0 -108.5 38.5t-67.5 104.5v-132h-20v714h20v-337zM81 256q0 -104 47.5 -176t128.5 -72q80 0 123.5 71.5t43.5 176.5q0 100 -42.5 175t-124.5 75q-81 0 -128.5 -65.5
t-47.5 -184.5z" />
    <glyph glyph-name="c" unicode="c" 
d="M420 153q-7 -74 -56 -119t-120 -45q-92 0 -147.5 75t-55.5 184q0 120 51 199t150 79q66 0 113.5 -39t57.5 -115h-20q-29 134 -151 134q-49 0 -86 -23t-56.5 -61.5t-29 -81.5t-9.5 -92q0 -98 50 -169t133 -71q61 0 104 38t52 107h20z" />
    <glyph glyph-name="d" unicode="d" horiz-adv-x="482" 
d="M421 714v-714h-20l-2 130q-21 -62 -67.5 -101.5t-105.5 -39.5q-86 0 -137 74.5t-51 192.5q0 113 50.5 191.5t137.5 78.5q67 0 112 -37t63 -105v330h20zM401 256q0 119 -47.5 184.5t-127.5 65.5q-82 0 -125 -75t-43 -175q0 -105 44 -176.5t124 -71.5t127.5 72t47.5 176z
" />
    <glyph glyph-name="e" unicode="e" 
d="M394 153h20q-7 -74 -56 -119t-120 -45q-92 0 -147.5 75t-55.5 184q0 120 51 199t150 79q90 0 134 -69.5t43 -179.5h-357q-5 -41 4 -86.5t29.5 -87t59.5 -68.5t89 -27q61 0 104 38t52 107zM236 506q-83 0 -126.5 -59.5t-52.5 -149.5h334q-2 97 -41 153t-114 56z" />
    <glyph glyph-name="f" unicode="f" horiz-adv-x="199" 
d="M14 514h74v114q0 29 7.5 47.5t22.5 26.5t27.5 10t30.5 2h28v-20h-32q-37 0 -50 -16.5t-13 -56.5v-107h94v-20h-94v-494h-21v494h-74v20z" />
    <glyph glyph-name="g" unicode="g" horiz-adv-x="467" 
d="M233 -164q81 0 120.5 44t39.5 139v146q-15 -63 -64 -100t-107 -37q-88 0 -136 70.5t-48 175.5q0 108 50 180t140 72q59 0 103 -38t62 -98v124h21v-495q0 -203 -180 -203q-74 0 -120 33t-46 105h20q0 -118 145 -118zM393 274q0 95 -44 163.5t-121 68.5q-81 0 -125.5 -66.5
t-44.5 -165.5t43 -162.5t120 -63.5q80 0 126 64.5t46 161.5z" />
    <glyph glyph-name="h" unicode="h" 
d="M81 714l2 -312q15 56 55.5 90t100.5 34q70 0 113.5 -48.5t43.5 -136.5v-341h-20v338q0 84 -38.5 126t-98.5 42q-75 0 -116.5 -62t-41.5 -153v-291h-20v714h20z" />
    <glyph glyph-name="i" unicode="i" horiz-adv-x="144" 
d="M61 613v101h20v-101h-20zM61 0v514h20v-514h-20z" />
    <glyph glyph-name="j" unicode="j" horiz-adv-x="144" 
d="M61 613v101h20v-101h-20zM81 -74q0 -65 -24.5 -83.5t-83.5 -18.5v20q53 0 70.5 14.5t17.5 74.5v581h20v-588z" />
    <glyph glyph-name="k" unicode="k" horiz-adv-x="403" 
d="M81 0h-20v714h20v-493l300 293h26l-201 -196h1l215 -318h-26l-204 303l-111 -109v-194z" />
    <glyph glyph-name="l" unicode="l" horiz-adv-x="136" 
d="M81 714v-714h-20v714h20z" />
    <glyph glyph-name="m" unicode="m" horiz-adv-x="687" 
d="M83 514l2 -112q14 55 52 89.5t86 34.5q49 2 84 -28t48 -84q14 51 52 81.5t87 30.5q76 0 108 -49t32 -139v-338h-20v338q0 82 -27 125t-93 43q-61 0 -98 -52.5t-37 -127.5v-326h-21v330q0 83 -24.5 129.5t-90.5 46.5q-63 0 -101.5 -63t-38.5 -152v-291h-20v514h20z" />
    <glyph glyph-name="n" unicode="n" 
d="M83 514l2 -112q15 56 55.5 90t100.5 34q70 0 113.5 -48.5t43.5 -136.5v-341h-20v338q0 84 -38.5 126t-98.5 42q-75 0 -116.5 -62t-41.5 -153v-291h-20v514h20z" />
    <glyph glyph-name="o" unicode="o" horiz-adv-x="478" 
d="M239 526q100 0 152 -79.5t52 -198.5q0 -109 -56 -184t-148 -75t-147.5 75t-55.5 184q0 119 51.5 198.5t151.5 79.5zM239 8q83 0 133.5 71t50.5 169q0 48 -9.5 91.5t-30 82t-58 61.5t-86.5 23q-65 0 -108 -40.5t-59 -96t-16 -121.5q0 -98 50 -169t133 -71z" />
    <glyph glyph-name="p" unicode="p" horiz-adv-x="482" 
d="M61 -176v690h20l2 -131q21 62 68 102.5t106 40.5q86 0 136.5 -75t50.5 -193q0 -114 -50 -191.5t-137 -77.5q-68 0 -113 37t-63 104v-306h-20zM257 8q82 0 124.5 75t42.5 175q0 105 -43.5 176.5t-123.5 71.5q-81 0 -128.5 -72t-47.5 -176q0 -119 47.5 -184.5t128.5 -65.5z
" />
    <glyph glyph-name="q" unicode="q" horiz-adv-x="482" 
d="M421 514v-690h-20l-2 306q-18 -64 -63.5 -102.5t-109.5 -38.5q-87 0 -137.5 77.5t-50.5 191.5q0 118 51 193t137 75q64 0 109.5 -39t65.5 -105v132h20zM401 258q0 104 -47.5 176t-127.5 72t-124 -71.5t-44 -176.5q0 -100 43 -175t125 -75q80 0 127.5 65.5t47.5 184.5z
" />
    <glyph glyph-name="r" unicode="r" horiz-adv-x="255" 
d="M61 0v514h20l2 -113q16 57 58.5 92t113.5 33v-20q-84 6 -129 -58.5t-45 -156.5v-291h-20z" />
    <glyph glyph-name="s" unicode="s" horiz-adv-x="420" 
d="M349 373q0 133 -143 133q-34 0 -59.5 -9.5t-39 -23t-21.5 -30t-10 -27.5t-2 -19q0 -15 2 -27t8.5 -22t10.5 -17.5t16.5 -15t17 -11t22 -9.5l22 -7.5t25.5 -7.5t24 -7l48.5 -15t40.5 -17t36.5 -25t21 -35t9.5 -50q0 -72 -47 -107t-113 -35q-178 0 -178 164h20
q0 -145 158 -145q55 0 97.5 30t42.5 91q0 30 -10.5 51.5t-35 35.5t-44.5 21.5t-59 18.5q-82 24 -108 42q-47 32 -47 99q0 50 38.5 89.5t113.5 39.5q77 0 120 -37.5t43 -115.5h-20z" />
    <glyph glyph-name="t" unicode="t" horiz-adv-x="231" 
d="M111 100q0 -27 5 -44.5t15.5 -24.5t19 -9t21.5 -2h27v-20h-35q-73 0 -73 96v398h-80v20h80v162h20v-162h99v-20h-99v-394z" />
    <glyph glyph-name="u" unicode="u" 
d="M376 0l-2 112q-15 -57 -55.5 -90t-100.5 -33q-71 0 -114 48t-43 136v341h20v-338q0 -84 38.5 -126t98.5 -42q75 0 116.5 62t41.5 153v291h20v-514h-20z" />
    <glyph glyph-name="v" unicode="v" horiz-adv-x="404" 
d="M6 514h22l151 -460q12 -34 24 -34t24 34l153 460h22l-156 -468q-16 -46 -43 -46q-26 0 -42 46z" />
    <glyph glyph-name="w" unicode="w" horiz-adv-x="624" 
d="M600 514h22l-120 -467q-12 -47 -34 -47t-33 45l-104 406q-1 5 -3 13t-3 12.5t-2.5 9t-3.5 6.5t-5 2q-4 0 -6 -5t-5.5 -20.5t-4.5 -20.5l-105 -403q-11 -45 -33 -45t-34 47l-120 467h22l114 -451q1 -4 2.5 -9.5l2.5 -9t2 -8t2 -7t2.5 -5t3 -3.5t3.5 -1t4 2t3.5 7.5t3 9.5
t3.5 12.5t3 13.5l105 403q6 25 13 35.5t19 10.5t19 -10.5t13 -35.5l105 -403q1 -5 3 -13.5t3.5 -12.5t3 -9.5t3.5 -7.5t4 -2t3.5 1t3 3.5t2.5 5t2 7t2 8l2.5 9t2.5 9.5z" />
    <glyph glyph-name="x" unicode="x" horiz-adv-x="372" 
d="M361 514l-160 -248l175 -266h-24l-163 248l-163 -248h-24l175 266l-159 248h25l146 -230l148 230h24z" />
    <glyph glyph-name="y" unicode="y" horiz-adv-x="372" 
d="M374 514l-202 -618q-16 -47 -43 -59.5t-76 -12.5v20q48 0 68 11t34 55l32 95l-182 509h21l172 -482l155 482h21z" />
    <glyph glyph-name="z" unicode="z" horiz-adv-x="372" 
d="M34 33q1 -13 26 -13h298v-20h-306q-38 0 -40 28q-1 23 20 51l278 372q13 18 11 30q-1 13 -24 13h-257v20h263q34 0 39 -25q4 -26 -17 -54l-278 -372q-14 -20 -13 -30z" />
    <glyph glyph-name="braceleft" unicode="{" horiz-adv-x="303" 
d="M211 -176q-36 0 -49.5 26t-13.5 85v162q0 66 -12.5 106t-48.5 68v19q27 6 44 55t17 112v165q0 59 13.5 84t49.5 25h45v-20h-43q-25 0 -35 -23t-10 -84v-164q0 -49 -16.5 -97.5t-45.5 -64.5q28 -17 45 -63t17 -101v-161q0 -64 10.5 -86.5t34.5 -22.5h43v-20h-45z" />
    <glyph glyph-name="bar" unicode="|" horiz-adv-x="209" 
d="M100 786h21v-999h-21v999z" />
    <glyph glyph-name="braceright" unicode="}" horiz-adv-x="303" 
d="M104 731q36 0 49.5 -26t13.5 -85v-163q0 -67 13 -107.5t48 -66.5v-19q-27 -6 -44 -55t-17 -112v-164q0 -59 -13.5 -84t-49.5 -25h-45v20h43q25 0 35 23t10 84v163q0 49 16.5 97.5t45.5 64.5q-28 17 -45 63t-17 101v162q0 64 -10.5 86.5t-34.5 22.5h-43v20h45z" />
    <glyph glyph-name="asciitilde" unicode="~" horiz-adv-x="530" 
d="M455 293h18q-9 -41 -35.5 -67t-65.5 -26q-41 0 -115 41q-3 2 -13.5 7.5l-13.5 7l-12 6t-13 6t-11.5 4t-13 3.5t-12.5 2t-14 1q-28 0 -50 -19.5t-32 -54.5h-18q9 41 35.5 67t65.5 26q41 0 115 -41q3 -2 13.5 -7.5l13.5 -7l12 -6t13 -6t11.5 -4t13 -3.5t12.5 -2t14 -1
q28 0 50 19.5t32 54.5z" />
    <glyph glyph-name="cent" unicode="&#xa2;" horiz-adv-x="493" 
d="M268 8q61 0 102.5 47t49.5 120h20q-10 -86 -56.5 -135t-117.5 -51v-109h-21v109q-87 4 -134 81t-47 188q0 106 48.5 184.5t134.5 82.5h-2v88h21v-88q70 -2 116 -45t54 -122h-21q-9 70 -48.5 107t-100.5 40v-497h2zM245 505q-77 -4 -118.5 -76.5t-41.5 -170.5
q0 -100 41 -173t119 -77v497z" />
    <glyph glyph-name="sterling" unicode="&#xa3;" horiz-adv-x="493" 
d="M296 345h-153q25 -57 25 -136q0 -101 -76 -185q38 29 79 29q32 0 82.5 -25t82.5 -25q38 0 65 20t65 64l13 -16q-37 -48 -69.5 -67.5t-73.5 -19.5q-34 0 -86.5 24.5t-78.5 24.5q-50 0 -107 -50l-16 20q100 102 100 206q0 77 -27 136h-65v20h56l-12 26q-47 103 -47 154
q0 90 58.5 138t139.5 48q102 0 152.5 -66t51.5 -165h-19q-14 211 -185 211q-73 0 -125.5 -42t-52.5 -124q0 -45 46 -144l16 -36h161v-20z" />
    <glyph glyph-name="section" unicode="&#xa7;" horiz-adv-x="569" 
d="M504 275q0 -62 -30 -105q30 -43 30 -103q0 -95 -65 -143t-153 -48q-109 0 -175 56.5t-64 183.5h20q0 -221 219 -221q80 0 138.5 43.5t58.5 129.5q0 50 -23.5 85.5t-60.5 54.5t-82 33.5l-90 28.5t-82 32.5t-60.5 53t-23.5 83.5q0 66 33 111q-33 40 -33 97q0 51 19 88
t50.5 57t67.5 29.5t76 9.5q98 0 157.5 -57.5t64.5 -173.5h-21q-3 106 -57 158.5t-144 52.5q-37 0 -69 -8t-61 -25.5t-46 -51t-17 -79.5q0 -44 23.5 -74.5t60.5 -48t82 -31.5t90.5 -30t82.5 -37t60.5 -59.5t23.5 -91.5zM81 439q0 -59 45 -96t102.5 -52t127 -41.5t103.5 -62.5
q24 38 24 89q0 55 -27.5 92.5t-73 57t-93.5 33t-99.5 33t-80.5 44.5q-28 -37 -28 -97z" />
    <glyph glyph-name="dieresis" unicode="&#xa8;" horiz-adv-x="130" 
d="M11 714h22l-32 -101h-20zM142 714h23l-32 -101h-21z" />
    <glyph glyph-name="copyright" unicode="&#xa9;" horiz-adv-x="700" 
d="M36 357q0 155 93.5 264.5t226.5 109.5t226.5 -109.5t93.5 -264.5q0 -156 -93.5 -264.5t-226.5 -108.5t-226.5 108.5t-93.5 264.5zM57 357q0 -148 87 -251t212 -103q124 0 211.5 103.5t87.5 250.5q0 146 -87.5 250t-211.5 104q-125 0 -212 -103.5t-87 -250.5zM501 428
q-8 63 -46.5 97t-91.5 34q-77 0 -121.5 -58t-44.5 -149t45.5 -151.5t122.5 -60.5q48 0 85.5 36t50.5 100h21q-14 -70 -56.5 -113t-100.5 -43q-84 0 -136 66t-52 165q0 101 50 164.5t136 63.5q63 0 107 -40t52 -111h-21z" />
    <glyph glyph-name="registered" unicode="&#xae;" horiz-adv-x="700" 
d="M36 357q0 155 93.5 264.5t226.5 109.5t226.5 -109.5t93.5 -264.5q0 -156 -93.5 -264.5t-226.5 -108.5t-226.5 108.5t-93.5 264.5zM57 357q0 -148 87 -251t212 -103q124 0 211.5 103.5t87.5 250.5q0 146 -87.5 250t-211.5 104q-125 0 -212 -103.5t-87 -250.5zM369 565
q122 0 122 -116q0 -52 -26.5 -80t-68.5 -32l112 -202h-25l-108 199h-107v-199h-21v430h122zM354 354q117 0 117 95q0 96 -104 96h-99v-191h86z" />
    <glyph glyph-name="acute" unicode="&#xb4;" horiz-adv-x="223" 
d="M223 714v-20l-223 -81v20z" />
    <glyph glyph-name="cedilla" unicode="&#xb8;" horiz-adv-x="130" 
d="M-24 -143q52 -19 89 -19q27 0 48.5 11.5t21.5 38.5q0 19 -18.5 31t-36.5 12q-33 0 -57 -11l-12 8l57 72h20l-41 -55q3 0 8.5 1.5t12.5 2t15 0.5q27 0 49.5 -15.5t22.5 -45.5q0 -39 -27.5 -54.5t-62.5 -15.5q-43 0 -89 17v22z" />
    <glyph glyph-name="Agrave" unicode="&#xc0;" horiz-adv-x="554" 
d="M388 833v-20l-223 81v20zM551 0h-22l-70 204h-360l-70 -204h-22l230 668q16 46 42 46q25 0 41 -46zM452 224l-149 436q-12 34 -24 34t-24 -34l-149 -436h346z" />
    <glyph glyph-name="Aacute" unicode="&#xc1;" horiz-adv-x="554" 
d="M388 914v-20l-223 -81v20zM551 0h-22l-70 204h-360l-70 -204h-22l230 668q16 46 42 46q25 0 41 -46zM452 224l-149 436q-12 34 -24 34t-24 -34l-149 -436h346z" />
    <glyph glyph-name="Acircumflex" unicode="&#xc2;" horiz-adv-x="554" 
d="M331 889l45 -76h-21l-41 68q-6 10 -8 13t-7.5 9.5t-10.5 8.5t-11 2q-8 0 -15.5 -5.5t-10.5 -10t-11 -17.5l-41 -68h-21l45 76q13 24 24 33t30 9t30 -9t24 -33zM551 0h-22l-70 204h-360l-70 -204h-22l230 668q16 46 42 46q25 0 41 -46zM452 224l-149 436q-12 34 -24 34
t-24 -34l-149 -436h346z" />
    <glyph glyph-name="Atilde" unicode="&#xc3;" horiz-adv-x="554" 
d="M408 875h20q-7 -29 -28 -49t-49 -20q-30 0 -82 29q-48 26 -72 26q-41 0 -57 -51h-20q7 29 28 49t49 20q31 0 83 -29q46 -26 71 -26q41 0 57 51zM551 0h-22l-70 204h-360l-70 -204h-22l230 668q16 46 42 46q25 0 41 -46zM452 224l-149 436q-12 34 -24 34t-24 -34
l-149 -436h346z" />
    <glyph glyph-name="Adieresis" unicode="&#xc4;" horiz-adv-x="554" 
d="M215 914h22l-32 -101h-20zM346 914h23l-32 -101h-21zM551 0h-22l-70 204h-360l-70 -204h-22l230 668q16 46 42 46q25 0 41 -46zM452 224l-149 436q-12 34 -24 34t-24 -34l-149 -436h346z" />
    <glyph glyph-name="Aring" unicode="&#xc5;" horiz-adv-x="554" 
d="M280 950q35 0 59.5 -25.5t24.5 -62.5t-24.5 -62.5t-59.5 -25.5t-59 25.5t-24 62.5t24 62.5t59 25.5zM280 795q26 0 45 19.5t19 47.5t-19 47.5t-45 19.5t-44.5 -19.5t-18.5 -47.5t18.5 -47.5t44.5 -19.5zM551 0h-22l-70 204h-360l-70 -204h-22l230 668q16 46 42 46
q25 0 41 -46zM452 224l-149 436q-12 34 -24 34t-24 -34l-149 -436h346z" />
    <glyph glyph-name="AE" unicode="&#xc6;" horiz-adv-x="827" 
d="M434 20h372v-20h-377q-33 0 -33 38v166h-297l-70 -204h-22l230 668q16 46 42 46h523v-20h-385v-312h363v-20h-363v-316q0 -26 17 -26zM106 224h290v470h-117q-12 0 -24 -34z" />
    <glyph glyph-name="Ccedilla" unicode="&#xc7;" horiz-adv-x="608" 
d="M569 224q-5 -54 -30 -105t-81 -91.5t-132 -43.5l-34 -45q3 0 8.5 1.5t12.5 2t15 0.5q27 0 49.5 -15.5t22.5 -45.5q0 -39 -27.5 -54.5t-62.5 -15.5q-43 0 -89 17v22q52 -19 89 -19q27 0 48.5 11.5t21.5 38.5q0 19 -18.5 31t-36.5 12q-33 0 -57 -11l-12 8l49 62
q-118 4 -193.5 106.5t-75.5 260.5q0 54 9.5 106t32 102t54.5 88t81.5 61t109.5 23q57 0 105 -23.5t77 -59.5t45 -74.5t17 -73.5h-21q-5 81 -69 146t-154 65q-71 0 -125 -34.5t-83.5 -90.5t-44 -115.5t-14.5 -119.5q0 -143 70 -245.5t187 -102.5q103 0 165.5 65t69.5 156h21z
" />
    <glyph glyph-name="Egrave" unicode="&#xc8;" horiz-adv-x="482" 
d="M352 833v-20l-223 81v20zM470 20v-20h-377q-33 0 -33 38v638q0 38 33 38h373v-20h-368q-17 0 -17 -26v-286h363v-20h-363v-316q0 -26 17 -26h372z" />
    <glyph glyph-name="Eacute" unicode="&#xc9;" horiz-adv-x="482" 
d="M352 914v-20l-223 -81v20zM470 20v-20h-377q-33 0 -33 38v638q0 38 33 38h373v-20h-368q-17 0 -17 -26v-286h363v-20h-363v-316q0 -26 17 -26h372z" />
    <glyph glyph-name="Ecircumflex" unicode="&#xca;" horiz-adv-x="482" 
d="M295 889l45 -76h-21l-41 68q-6 10 -8 13t-7.5 9.5t-10.5 8.5t-11 2q-8 0 -15.5 -5.5t-10.5 -10t-11 -17.5l-41 -68h-21l45 76q13 24 24 33t30 9t30 -9t24 -33zM470 20v-20h-377q-33 0 -33 38v638q0 38 33 38h373v-20h-368q-17 0 -17 -26v-286h363v-20h-363v-316
q0 -26 17 -26h372z" />
    <glyph glyph-name="Edieresis" unicode="&#xcb;" horiz-adv-x="482" 
d="M179 914h22l-32 -101h-20zM310 914h23l-32 -101h-21zM470 20v-20h-377q-33 0 -33 38v638q0 38 33 38h373v-20h-368q-17 0 -17 -26v-286h363v-20h-363v-316q0 -26 17 -26h372z" />
    <glyph glyph-name="Igrave" unicode="&#xcc;" horiz-adv-x="164" 
d="M194 833v-20l-223 81v20zM93 714v-714h-21v714h21z" />
    <glyph glyph-name="Iacute" unicode="&#xcd;" horiz-adv-x="164" 
d="M194 914v-20l-223 -81v20zM93 714v-714h-21v714h21z" />
    <glyph glyph-name="Icircumflex" unicode="&#xce;" horiz-adv-x="164" 
d="M136 889l45 -76h-21l-41 68q-6 10 -8 13t-7.5 9.5t-10.5 8.5t-11 2q-8 0 -15.5 -5.5t-10.5 -10t-11 -17.5l-41 -68h-21l45 76q14 24 24 33t30 9t30 -9t24 -33zM93 714v-714h-21v714h21z" />
    <glyph glyph-name="Idieresis" unicode="&#xcf;" horiz-adv-x="164" 
d="M20 914h22l-32 -101h-20zM151 914h23l-32 -101h-21zM93 714v-714h-21v714h21z" />
    <glyph glyph-name="Ntilde" unicode="&#xd1;" horiz-adv-x="651" 
d="M459 875h20q-7 -29 -28 -49t-49 -20q-30 0 -82 29q-48 26 -72 26q-41 0 -57 -51h-20q7 29 28 49t49 20q31 0 83 -29q46 -26 71 -26q41 0 57 51zM568 714h21v-670q0 -20 -10.5 -31.5t-22.5 -12.5q-27 -2 -46 30l-388 643q-15 24 -28 20q-13 -3 -13 -31v-662h-21v670
q0 20 10.5 31.5t22.5 12.5q28 2 47 -30l387 -643q15 -24 28 -20q13 3 13 31v662z" />
    <glyph glyph-name="Ograve" unicode="&#xd2;" horiz-adv-x="639" 
d="M431 833v-20l-223 81v20zM41 357q0 103 32 187t97 135.5t153 51.5q131 0 206 -107t75 -267q0 -104 -31.5 -187.5t-96.5 -134.5t-153 -51q-132 0 -207 106.5t-75 266.5zM62 357q2 -157 71.5 -255.5t189.5 -98.5q119 0 189 98.5t72 255.5q-2 157 -72 255.5t-189 98.5
q-120 0 -189.5 -98.5t-71.5 -255.5z" />
    <glyph glyph-name="Oacute" unicode="&#xd3;" horiz-adv-x="639" 
d="M431 914v-20l-223 -81v20zM41 357q0 103 32 187t97 135.5t153 51.5q131 0 206 -107t75 -267q0 -104 -31.5 -187.5t-96.5 -134.5t-153 -51q-132 0 -207 106.5t-75 266.5zM62 357q2 -157 71.5 -255.5t189.5 -98.5q119 0 189 98.5t72 255.5q-2 157 -72 255.5t-189 98.5
q-120 0 -189.5 -98.5t-71.5 -255.5z" />
    <glyph glyph-name="Ocircumflex" unicode="&#xd4;" horiz-adv-x="639" 
d="M373 889l45 -76h-21l-41 68q-6 10 -8 13t-7.5 9.5t-10.5 8.5t-11 2q-8 0 -15.5 -5.5t-10.5 -10t-11 -17.5l-41 -68h-21l45 76q13 24 24 33t30 9t30 -9t24 -33zM41 357q0 103 32 187t97 135.5t153 51.5q131 0 206 -107t75 -267q0 -104 -31.5 -187.5t-96.5 -134.5t-153 -51
q-132 0 -207 106.5t-75 266.5zM62 357q2 -157 71.5 -255.5t189.5 -98.5q119 0 189 98.5t72 255.5q-2 157 -72 255.5t-189 98.5q-120 0 -189.5 -98.5t-71.5 -255.5z" />
    <glyph glyph-name="Otilde" unicode="&#xd5;" horiz-adv-x="639" 
d="M453 875h20q-7 -29 -28 -49t-49 -20q-30 0 -82 29q-48 26 -72 26q-41 0 -57 -51h-20q7 29 28 49t49 20q31 0 83 -29q46 -26 71 -26q41 0 57 51zM41 357q0 103 32 187t97 135.5t153 51.5q131 0 206 -107t75 -267q0 -104 -31.5 -187.5t-96.5 -134.5t-153 -51
q-132 0 -207 106.5t-75 266.5zM62 357q2 -157 71.5 -255.5t189.5 -98.5q119 0 189 98.5t72 255.5q-2 157 -72 255.5t-189 98.5q-120 0 -189.5 -98.5t-71.5 -255.5z" />
    <glyph glyph-name="Odieresis" unicode="&#xd6;" horiz-adv-x="639" 
d="M257 914h22l-32 -101h-20zM388 914h23l-32 -101h-21zM41 357q0 103 32 187t97 135.5t153 51.5q131 0 206 -107t75 -267q0 -104 -31.5 -187.5t-96.5 -134.5t-153 -51q-132 0 -207 106.5t-75 266.5zM62 357q2 -157 71.5 -255.5t189.5 -98.5q119 0 189 98.5t72 255.5
q-2 157 -72 255.5t-189 98.5q-120 0 -189.5 -98.5t-71.5 -255.5z" />
    <glyph glyph-name="Oslash" unicode="&#xd8;" horiz-adv-x="639" 
d="M478 678q61 -49 93.5 -133.5t32.5 -187.5q0 -104 -31.5 -187.5t-96.5 -134.5t-153 -51q-79 0 -140 41l-18 -41h-20l23 52q-61 48 -94 132.5t-33 188.5q0 103 32 187t97 135.5t153 51.5q77 0 139 -41l19 41h21zM62 357q2 -209 115 -302l277 616q-57 40 -131 40
q-120 0 -189.5 -98.5t-71.5 -255.5zM323 3q119 0 189 98.5t72 255.5q-2 99 -31.5 177.5t-83.5 124.5l-277 -616q55 -40 131 -40z" />
    <glyph glyph-name="Ugrave" unicode="&#xd9;" horiz-adv-x="563" 
d="M393 833v-20l-223 81v20zM509 714v-448q0 -282 -224 -282q-225 0 -225 282v448h21v-448q0 -263 204 -263t204 263v448h20z" />
    <glyph glyph-name="Uacute" unicode="&#xda;" horiz-adv-x="563" 
d="M393 914v-20l-223 -81v20zM509 714v-448q0 -282 -224 -282q-225 0 -225 282v448h21v-448q0 -263 204 -263t204 263v448h20z" />
    <glyph glyph-name="Ucircumflex" unicode="&#xdb;" horiz-adv-x="563" 
d="M335 889l45 -76h-21l-41 68q-6 10 -8 13t-7.5 9.5t-10.5 8.5t-11 2q-8 0 -15.5 -5.5t-10.5 -10t-11 -17.5l-41 -68h-21l45 76q13 24 24 33t30 9t30 -9t24 -33zM509 714v-448q0 -282 -224 -282q-225 0 -225 282v448h21v-448q0 -263 204 -263t204 263v448h20z" />
    <glyph glyph-name="Udieresis" unicode="&#xdc;" horiz-adv-x="563" 
d="M219 914h22l-32 -101h-20zM350 914h23l-32 -101h-21zM509 714v-448q0 -282 -224 -282q-225 0 -225 282v448h21v-448q0 -263 204 -263t204 263v448h20z" />
    <glyph glyph-name="Yacute" unicode="&#xdd;" horiz-adv-x="483" 
d="M353 914v-20l-223 -81v20zM500 714l-245 -413v-301h-21v301l-244 413h24l231 -389l232 389h23z" />
    <glyph glyph-name="germandbls" unicode="&#xdf;" horiz-adv-x="441" 
d="M280 398q70 -9 105.5 -61t35.5 -133q0 -89 -52 -146.5t-160 -57.5h-55v20h55q89 0 140 46t51 138q0 103 -50.5 143t-144.5 40v20h2q70 -2 116 35t46 119q0 66 -41.5 105.5t-101.5 39.5q-133 0 -133 -153v-553h-20v494h-57v20h57v42q0 89 44 129.5t109 40.5t114 -45.5
t49 -119.5q0 -63 -28.5 -106.5t-80.5 -56.5z" />
    <glyph glyph-name="agrave" unicode="&#xe0;" horiz-adv-x="435" 
d="M329 633v-20l-223 81v20zM60 372q6 154 163 154q66 0 108 -34.5t44 -112.5v-276q0 -68 35 -103h-26q-30 30 -30 105v5q-16 -51 -62.5 -86t-110.5 -35q-69 0 -108.5 35.5t-39.5 102.5q0 141 174 155q37 3 54 5t39.5 7t31 13t15.5 22t7 35q0 142 -131 142
q-69 0 -103.5 -31.5t-38.5 -102.5h-21zM179 8q81 0 128 55.5t47 132.5v108q-5 -7 -11.5 -12.5t-16.5 -9.5t-18 -6.5t-22.5 -4.5t-22.5 -3t-25.5 -2.5t-24.5 -2.5q-80 -8 -120 -36t-40 -100q0 -50 30.5 -84.5t95.5 -34.5z" />
    <glyph glyph-name="aacute" unicode="&#xe1;" horiz-adv-x="435" 
d="M329 714v-20l-223 -81v20zM60 372q6 154 163 154q66 0 108 -34.5t44 -112.5v-276q0 -68 35 -103h-26q-30 30 -30 105v5q-16 -51 -62.5 -86t-110.5 -35q-69 0 -108.5 35.5t-39.5 102.5q0 141 174 155q37 3 54 5t39.5 7t31 13t15.5 22t7 35q0 142 -131 142
q-69 0 -103.5 -31.5t-38.5 -102.5h-21zM179 8q81 0 128 55.5t47 132.5v108q-5 -7 -11.5 -12.5t-16.5 -9.5t-18 -6.5t-22.5 -4.5t-22.5 -3t-25.5 -2.5t-24.5 -2.5q-80 -8 -120 -36t-40 -100q0 -50 30.5 -84.5t95.5 -34.5z" />
    <glyph glyph-name="acircumflex" unicode="&#xe2;" horiz-adv-x="435" 
d="M271 689l45 -76h-21l-41 68q-6 10 -8 13t-7.5 9.5t-10.5 8.5t-11 2q-8 0 -15.5 -5.5t-10.5 -10t-11 -17.5l-41 -68h-21l45 76q13 24 24 33t30 9t30 -9t24 -33zM60 372q6 154 163 154q66 0 108 -34.5t44 -112.5v-276q0 -68 35 -103h-26q-30 30 -30 105v5
q-16 -51 -62.5 -86t-110.5 -35q-69 0 -108.5 35.5t-39.5 102.5q0 141 174 155q37 3 54 5t39.5 7t31 13t15.5 22t7 35q0 142 -131 142q-69 0 -103.5 -31.5t-38.5 -102.5h-21zM179 8q81 0 128 55.5t47 132.5v108q-5 -7 -11.5 -12.5t-16.5 -9.5t-18 -6.5t-22.5 -4.5t-22.5 -3
t-25.5 -2.5t-24.5 -2.5q-80 -8 -120 -36t-40 -100q0 -50 30.5 -84.5t95.5 -34.5z" />
    <glyph glyph-name="atilde" unicode="&#xe3;" horiz-adv-x="435" 
d="M351 675h20q-7 -29 -28 -49t-49 -20q-30 0 -82 29q-48 26 -72 26q-41 0 -57 -51h-20q7 29 28 49t49 20q31 0 83 -29q46 -26 71 -26q41 0 57 51zM60 372q6 154 163 154q66 0 108 -34.5t44 -112.5v-276q0 -68 35 -103h-26q-30 30 -30 105v5q-16 -51 -62.5 -86t-110.5 -35
q-69 0 -108.5 35.5t-39.5 102.5q0 141 174 155q37 3 54 5t39.5 7t31 13t15.5 22t7 35q0 142 -131 142q-69 0 -103.5 -31.5t-38.5 -102.5h-21zM179 8q81 0 128 55.5t47 132.5v108q-5 -7 -11.5 -12.5t-16.5 -9.5t-18 -6.5t-22.5 -4.5t-22.5 -3t-25.5 -2.5t-24.5 -2.5
q-80 -8 -120 -36t-40 -100q0 -50 30.5 -84.5t95.5 -34.5z" />
    <glyph glyph-name="adieresis" unicode="&#xe4;" horiz-adv-x="435" 
d="M170 714h22l-32 -101h-20zM301 714h23l-32 -101h-21zM60 372q6 154 163 154q66 0 108 -34.5t44 -112.5v-276q0 -68 35 -103h-26q-30 30 -30 105v5q-16 -51 -62.5 -86t-110.5 -35q-69 0 -108.5 35.5t-39.5 102.5q0 141 174 155q37 3 54 5t39.5 7t31 13t15.5 22t7 35
q0 142 -131 142q-69 0 -103.5 -31.5t-38.5 -102.5h-21zM179 8q81 0 128 55.5t47 132.5v108q-5 -7 -11.5 -12.5t-16.5 -9.5t-18 -6.5t-22.5 -4.5t-22.5 -3t-25.5 -2.5t-24.5 -2.5q-80 -8 -120 -36t-40 -100q0 -50 30.5 -84.5t95.5 -34.5z" />
    <glyph glyph-name="aring" unicode="&#xe5;" horiz-adv-x="435" 
d="M223 750q35 0 59.5 -25.5t24.5 -62.5t-24.5 -62.5t-59.5 -25.5t-59 25.5t-24 62.5t24 62.5t59 25.5zM223 595q26 0 45 19.5t19 47.5t-19 47.5t-45 19.5t-44.5 -19.5t-18.5 -47.5t18.5 -47.5t44.5 -19.5zM60 372q6 154 163 154q66 0 108 -34.5t44 -112.5v-276
q0 -68 35 -103h-26q-30 30 -30 105v5q-16 -51 -62.5 -86t-110.5 -35q-69 0 -108.5 35.5t-39.5 102.5q0 141 174 155q37 3 54 5t39.5 7t31 13t15.5 22t7 35q0 142 -131 142q-69 0 -103.5 -31.5t-38.5 -102.5h-21zM179 8q81 0 128 55.5t47 132.5v108q-5 -7 -11.5 -12.5
t-16.5 -9.5t-18 -6.5t-22.5 -4.5t-22.5 -3t-25.5 -2.5t-24.5 -2.5q-80 -8 -120 -36t-40 -100q0 -50 30.5 -84.5t95.5 -34.5z" />
    <glyph glyph-name="ae" unicode="&#xe6;" horiz-adv-x="770" 
d="M715 153h20q-7 -74 -56 -119t-120 -45q-68 0 -116.5 42t-71.5 112q-22 -71 -73 -112.5t-117 -41.5q-69 0 -108.5 35.5t-39.5 102.5q0 141 174 155q37 3 54 5t39.5 7t31 13t15.5 22t7 35q0 142 -131 142q-69 0 -103.5 -31.5t-38.5 -102.5h-21q6 154 163 154
q66 0 107.5 -34t44.5 -111q48 145 182 145q90 0 134 -69.5t43 -179.5h-357q-5 -41 4 -86.5t29.5 -87t59.5 -68.5t89 -27q61 0 104 38t52 107zM557 506q-83 0 -126.5 -59.5t-52.5 -149.5h334q-2 97 -41 153t-114 56zM354 196v108q-5 -7 -11.5 -12.5t-16.5 -9.5t-18 -6.5
t-22.5 -4.5t-22.5 -3t-25.5 -2.5t-24.5 -2.5q-80 -8 -120 -36t-40 -100q0 -50 30.5 -84.5t95.5 -34.5q80 0 127.5 57.5t47.5 130.5z" />
    <glyph glyph-name="ccedilla" unicode="&#xe7;" 
d="M420 153q-7 -73 -54 -117.5t-115 -46.5l-36 -48q3 0 8.5 1.5t12.5 2t15 0.5q27 0 49.5 -15.5t22.5 -45.5q0 -39 -27.5 -54.5t-62.5 -15.5q-43 0 -89 17v22q52 -19 89 -19q27 0 48.5 11.5t21.5 38.5q0 19 -18.5 31t-36.5 12q-33 0 -57 -11l-12 8l52 65q-86 6 -138 80.5
t-52 178.5q0 120 51 199t150 79q66 0 113.5 -39t57.5 -115h-20q-29 134 -151 134q-49 0 -86 -23t-56.5 -61.5t-29 -81.5t-9.5 -92q0 -98 50 -169t133 -71q61 0 104 38t52 107h20z" />
    <glyph glyph-name="egrave" unicode="&#xe8;" 
d="M337 633v-20l-223 81v20zM394 153h20q-7 -74 -56 -119t-120 -45q-92 0 -147.5 75t-55.5 184q0 120 51 199t150 79q90 0 134 -69.5t43 -179.5h-357q-5 -41 4 -86.5t29.5 -87t59.5 -68.5t89 -27q61 0 104 38t52 107zM236 506q-83 0 -126.5 -59.5t-52.5 -149.5h334
q-2 97 -41 153t-114 56z" />
    <glyph glyph-name="eacute" unicode="&#xe9;" 
d="M337 714v-20l-223 -81v20zM394 153h20q-7 -74 -56 -119t-120 -45q-92 0 -147.5 75t-55.5 184q0 120 51 199t150 79q90 0 134 -69.5t43 -179.5h-357q-5 -41 4 -86.5t29.5 -87t59.5 -68.5t89 -27q61 0 104 38t52 107zM236 506q-83 0 -126.5 -59.5t-52.5 -149.5h334
q-2 97 -41 153t-114 56z" />
    <glyph glyph-name="ecircumflex" unicode="&#xea;" 
d="M279 689l45 -76h-21l-41 68q-6 10 -8 13t-7.5 9.5t-10.5 8.5t-11 2q-8 0 -15.5 -5.5t-10.5 -10t-11 -17.5l-41 -68h-21l45 76q13 24 24 33t30 9t30 -9t24 -33zM394 153h20q-7 -74 -56 -119t-120 -45q-92 0 -147.5 75t-55.5 184q0 120 51 199t150 79q90 0 134 -69.5
t43 -179.5h-357q-5 -41 4 -86.5t29.5 -87t59.5 -68.5t89 -27q61 0 104 38t52 107zM236 506q-83 0 -126.5 -59.5t-52.5 -149.5h334q-2 97 -41 153t-114 56z" />
    <glyph glyph-name="edieresis" unicode="&#xeb;" 
d="M178 714h22l-32 -101h-20zM309 714h23l-32 -101h-21zM394 153h20q-7 -74 -56 -119t-120 -45q-92 0 -147.5 75t-55.5 184q0 120 51 199t150 79q90 0 134 -69.5t43 -179.5h-357q-5 -41 4 -86.5t29.5 -87t59.5 -68.5t89 -27q61 0 104 38t52 107zM236 506q-83 0 -126.5 -59.5
t-52.5 -149.5h334q-2 97 -41 153t-114 56z" />
    <glyph glyph-name="igrave" unicode="&#xec;" horiz-adv-x="144" 
d="M184 633v-20l-223 81v20zM61 0v514h20v-514h-20z" />
    <glyph glyph-name="iacute" unicode="&#xed;" horiz-adv-x="144" 
d="M184 714v-20l-223 -81v20zM61 0v514h20v-514h-20z" />
    <glyph glyph-name="icircumflex" unicode="&#xee;" horiz-adv-x="144" 
d="M126 689l45 -76h-21l-41 68q-6 10 -8 13t-7.5 9.5t-10.5 8.5t-11 2q-8 0 -15.5 -5.5t-10.5 -10t-11 -17.5l-41 -68h-21l45 76q14 24 24 33t30 9t30 -9t24 -33zM61 0v514h20v-514h-20z" />
    <glyph glyph-name="idieresis" unicode="&#xef;" horiz-adv-x="144" 
d="M10 714h22l-32 -101h-20zM141 714h23l-32 -101h-21zM61 0v514h20v-514h-20z" />
    <glyph glyph-name="ntilde" unicode="&#xf1;" 
d="M359 675h20q-7 -29 -28 -49t-49 -20q-30 0 -82 29q-48 26 -72 26q-41 0 -57 -51h-20q7 29 28 49t49 20q31 0 83 -29q46 -26 71 -26q41 0 57 51zM83 514l2 -112q15 56 55.5 90t100.5 34q70 0 113.5 -48.5t43.5 -136.5v-341h-20v338q0 84 -38.5 126t-98.5 42
q-75 0 -116.5 -62t-41.5 -153v-291h-20v514h20z" />
    <glyph glyph-name="ograve" unicode="&#xf2;" horiz-adv-x="478" 
d="M350 633v-20l-223 81v20zM239 526q100 0 152 -79.5t52 -198.5q0 -109 -56 -184t-148 -75t-147.5 75t-55.5 184q0 119 51.5 198.5t151.5 79.5zM239 8q83 0 133.5 71t50.5 169q0 48 -9.5 91.5t-30 82t-58 61.5t-86.5 23q-65 0 -108 -40.5t-59 -96t-16 -121.5q0 -98 50 -169
t133 -71z" />
    <glyph glyph-name="oacute" unicode="&#xf3;" horiz-adv-x="478" 
d="M350 714v-20l-223 -81v20zM239 526q100 0 152 -79.5t52 -198.5q0 -109 -56 -184t-148 -75t-147.5 75t-55.5 184q0 119 51.5 198.5t151.5 79.5zM239 8q83 0 133.5 71t50.5 169q0 48 -9.5 91.5t-30 82t-58 61.5t-86.5 23q-65 0 -108 -40.5t-59 -96t-16 -121.5
q0 -98 50 -169t133 -71z" />
    <glyph glyph-name="ocircumflex" unicode="&#xf4;" horiz-adv-x="478" 
d="M293 689l45 -76h-21l-41 68q-6 10 -8 13t-7.5 9.5t-10.5 8.5t-11 2q-8 0 -15.5 -5.5t-10.5 -10t-11 -17.5l-41 -68h-21l45 76q13 24 24 33t30 9t30 -9t24 -33zM239 526q100 0 152 -79.5t52 -198.5q0 -109 -56 -184t-148 -75t-147.5 75t-55.5 184q0 119 51.5 198.5
t151.5 79.5zM239 8q83 0 133.5 71t50.5 169q0 48 -9.5 91.5t-30 82t-58 61.5t-86.5 23q-65 0 -108 -40.5t-59 -96t-16 -121.5q0 -98 50 -169t133 -71z" />
    <glyph glyph-name="otilde" unicode="&#xf5;" horiz-adv-x="478" 
d="M373 675h20q-7 -29 -28 -49t-49 -20q-30 0 -82 29q-48 26 -72 26q-41 0 -57 -51h-20q7 29 28 49t49 20q31 0 83 -29q46 -26 71 -26q41 0 57 51zM239 526q100 0 152 -79.5t52 -198.5q0 -109 -56 -184t-148 -75t-147.5 75t-55.5 184q0 119 51.5 198.5t151.5 79.5zM239 8
q83 0 133.5 71t50.5 169q0 48 -9.5 91.5t-30 82t-58 61.5t-86.5 23q-65 0 -108 -40.5t-59 -96t-16 -121.5q0 -98 50 -169t133 -71z" />
    <glyph glyph-name="odieresis" unicode="&#xf6;" horiz-adv-x="478" 
d="M183 714h22l-32 -101h-20zM314 714h23l-32 -101h-21zM239 526q100 0 152 -79.5t52 -198.5q0 -109 -56 -184t-148 -75t-147.5 75t-55.5 184q0 119 51.5 198.5t151.5 79.5zM239 8q83 0 133.5 71t50.5 169q0 48 -9.5 91.5t-30 82t-58 61.5t-86.5 23q-65 0 -108 -40.5
t-59 -96t-16 -121.5q0 -98 50 -169t133 -71z" />
    <glyph glyph-name="oslash" unicode="&#xf8;" horiz-adv-x="478" 
d="M363 479q80 -76 80 -231q0 -109 -56 -184t-148 -75q-46 0 -87 22l-12 -27h-20l16 37q-47 33 -73.5 93.5t-26.5 133.5q0 119 51.5 198.5t151.5 79.5q63 0 109 -35l18 40h21zM56 248q0 -65 23.5 -121t65.5 -88l195 434q-41 33 -101 33q-65 0 -108 -40.5t-59 -96t-16 -121.5
zM239 8q83 0 133.5 71t50.5 169q0 141 -68 212l-195 -431q37 -21 79 -21z" />
    <glyph glyph-name="ugrave" unicode="&#xf9;" 
d="M337 633v-20l-223 81v20zM376 0l-2 112q-15 -57 -55.5 -90t-100.5 -33q-71 0 -114 48t-43 136v341h20v-338q0 -84 38.5 -126t98.5 -42q75 0 116.5 62t41.5 153v291h20v-514h-20z" />
    <glyph glyph-name="uacute" unicode="&#xfa;" 
d="M348 714v-20l-223 -81v20zM376 0l-2 112q-15 -57 -55.5 -90t-100.5 -33q-71 0 -114 48t-43 136v341h20v-338q0 -84 38.5 -126t98.5 -42q75 0 116.5 62t41.5 153v291h20v-514h-20z" />
    <glyph glyph-name="ucircumflex" unicode="&#xfb;" 
d="M279 689l45 -76h-21l-41 68q-6 10 -8 13t-7.5 9.5t-10.5 8.5t-11 2q-8 0 -15.5 -5.5t-10.5 -10t-11 -17.5l-41 -68h-21l45 76q13 24 24 33t30 9t30 -9t24 -33zM376 0l-2 112q-15 -57 -55.5 -90t-100.5 -33q-71 0 -114 48t-43 136v341h20v-338q0 -84 38.5 -126t98.5 -42
q75 0 116.5 62t41.5 153v291h20v-514h-20z" />
    <glyph glyph-name="udieresis" unicode="&#xfc;" horiz-adv-x="445" 
d="M185 714h22l-32 -101h-20zM316 714h23l-32 -101h-21zM382 0l-2 112q-15 -57 -55.5 -90t-100.5 -33q-71 0 -114 48t-43 136v341h20v-338q0 -84 38.5 -126t98.5 -42q75 0 116.5 62t41.5 153v291h20v-514h-20z" />
    <glyph glyph-name="yacute" unicode="&#xfd;" horiz-adv-x="372" 
d="M297 714v-20l-223 -81v20zM374 514l-202 -618q-16 -47 -43 -59.5t-76 -12.5v20q48 0 68 11t34 55l32 95l-182 509h21l172 -482l155 482h21z" />
    <glyph glyph-name="ydieresis" unicode="&#xff;" horiz-adv-x="372" 
d="M124 714h22l-32 -101h-20zM255 714h23l-32 -101h-21zM374 514l-202 -618q-16 -47 -43 -59.5t-76 -12.5v20q48 0 68 11t34 55l32 95l-182 509h21l172 -482l155 482h21z" />
    <glyph glyph-name="dotlessi" unicode="&#x131;" horiz-adv-x="144" 
d="M61 0v514h20v-514h-20z" />
    <glyph glyph-name="OE" unicode="&#x152;" horiz-adv-x="871" 
d="M462 20h389v-20h-486q-58 0 -110.5 20.5t-97 61.5t-71 112t-26.5 163q0 81 17.5 144.5t45.5 102.5t65.5 64.5t74.5 35.5t76 10h508v-20h-385v-312h363v-20h-363v-342zM441 20v674h-98q-49 0 -92.5 -16t-83.5 -51.5t-63.5 -105t-23.5 -164.5q0 -162 82.5 -249.5
t198.5 -87.5h80z" />
    <glyph glyph-name="oe" unicode="&#x153;" horiz-adv-x="837" 
d="M784 153h20q-7 -74 -56 -119t-120 -45q-73 0 -124 49t-70 129q-19 -79 -70.5 -128.5t-124.5 -49.5q-92 0 -147.5 75t-55.5 184q0 119 51.5 198.5t151.5 79.5q78 0 127.5 -50t67.5 -134q17 84 65 134t127 50q90 0 134 -69.5t43 -179.5h-357q-5 -41 4 -86.5t29.5 -87
t59.5 -68.5t89 -27q61 0 104 38t52 107zM239 8q83 0 133.5 71t50.5 169q0 48 -9.5 91.5t-30 82t-58 61.5t-86.5 23q-65 0 -108 -40.5t-59 -96t-16 -121.5q0 -98 50 -169t133 -71zM626 506q-83 0 -126.5 -59.5t-52.5 -149.5h334q-2 97 -41 153t-114 56z" />
    <glyph glyph-name="Scaron" unicode="&#x160;" horiz-adv-x="539" 
d="M315 847l39 84h19l-42 -91q-12 -26 -23 -37.5t-27 -11.5t-27 11.5t-23 37.5l-42 91h20l39 -84q17 -36 33 -36q17 0 34 36zM481 500q-3 106 -57 158.5t-144 52.5q-37 0 -69 -8t-61 -25.5t-46 -51t-17 -79.5q0 -44 23.5 -74.5t60.5 -48t82 -31.5t90.5 -30t82.5 -37
t60.5 -59.5t23.5 -91.5q0 -95 -65 -143t-153 -48q-109 0 -175 56.5t-64 183.5h20q0 -221 219 -221q80 0 138.5 43.5t58.5 129.5q0 50 -23.5 85.5t-60.5 54.5t-82 33.5l-90 28.5t-82 32.5t-60.5 53t-23.5 83.5q0 51 19 88t50.5 57t67.5 29.5t76 9.5q98 0 157.5 -57.5
t64.5 -173.5h-21z" />
    <glyph glyph-name="scaron" unicode="&#x161;" horiz-adv-x="414" 
d="M253 647l39 84h19l-42 -91q-12 -26 -23 -37.5t-27 -11.5t-27 11.5t-23 37.5l-42 91h20l39 -84q17 -36 33 -36q17 0 34 36zM355 373q0 133 -143 133q-34 0 -59.5 -9.5t-39 -23t-21.5 -30t-10 -27.5t-2 -19q0 -15 2 -27t8.5 -22t10.5 -17.5t16.5 -15t17 -11t22 -9.5
l22 -7.5t25.5 -7.5t24 -7l48.5 -15t40.5 -17t36.5 -25t21 -35t9.5 -50q0 -72 -47 -107t-113 -35q-178 0 -178 164h20q0 -145 158 -145q55 0 97.5 30t42.5 91q0 30 -10.5 51.5t-35 35.5t-44.5 21.5t-59 18.5q-82 24 -108 42q-47 32 -47 99q0 50 38.5 89.5t113.5 39.5
q77 0 120 -37.5t43 -115.5h-20z" />
    <glyph glyph-name="Ydieresis" unicode="&#x178;" horiz-adv-x="483" 
d="M179 914h22l-32 -101h-20zM310 914h23l-32 -101h-21zM500 714l-245 -413v-301h-21v301l-244 413h24l231 -389l232 389h23z" />
    <glyph glyph-name="Zcaron" unicode="&#x17d;" horiz-adv-x="445" 
d="M268 847l39 84h19l-42 -91q-12 -26 -23 -37.5t-27 -11.5t-27 11.5t-23 37.5l-42 91h20l39 -84q17 -36 33 -36q17 0 34 36zM40 33q1 -13 26 -13h388v-20h-396q-38 0 -40 28q-1 19 20 51l363 572q15 25 12 33q-4 10 -29 10h-356v20h368q35 0 39 -24q3 -20 -19 -55
l-363 -572q-14 -23 -13 -30z" />
    <glyph glyph-name="zcaron" unicode="&#x17e;" horiz-adv-x="366" 
d="M229 647l39 84h19l-42 -91q-12 -26 -23 -37.5t-27 -11.5t-27 11.5t-23 37.5l-42 91h20l39 -84q17 -36 33 -36q17 0 34 36zM40 33q1 -13 26 -13h298v-20h-306q-38 0 -40 28q-1 23 20 51l278 372q13 18 11 30q-1 13 -24 13h-257v20h263q34 0 39 -25q4 -26 -17 -54
l-278 -372q-14 -20 -13 -30z" />
    <glyph glyph-name="circumflex" unicode="&#x2c6;" horiz-adv-x="198" 
d="M153 689l45 -76h-21l-41 68q-6 10 -8 13t-7.5 9.5t-10.5 8.5t-11 2q-8 0 -15.5 -5.5t-10.5 -10t-11 -17.5l-41 -68h-21l45 76q13 24 24 33t30 9t30 -9t24 -33z" />
    <glyph glyph-name="caron" unicode="&#x2c7;" horiz-adv-x="130" 
d="M107 647l39 84h19l-42 -91q-12 -26 -23 -37.5t-27 -11.5t-27 11.5t-23 37.5l-42 91h20l39 -84q17 -36 33 -36q17 0 34 36z" />
    <glyph glyph-name="breve" unicode="&#x2d8;" horiz-adv-x="130" 
d="M-14 731q5 -39 27 -63t56 -24q79 0 88 87h20q-4 -50 -34 -78.5t-74 -28.5q-42 0 -70 29.5t-33 77.5h20z" />
    <glyph glyph-name="dotaccent" unicode="&#x2d9;" horiz-adv-x="130" 
d="M81 590h-20v81h20v-81z" />
    <glyph glyph-name="ring" unicode="&#x2da;" horiz-adv-x="168" 
d="M84 750q35 0 59.5 -25.5t24.5 -62.5t-24.5 -62.5t-59.5 -25.5t-59 25.5t-24 62.5t24 62.5t59 25.5zM84 595q26 0 45 19.5t19 47.5t-19 47.5t-45 19.5t-44.5 -19.5t-18.5 -47.5t18.5 -47.5t44.5 -19.5z" />
    <glyph glyph-name="ogonek" unicode="&#x2db;" horiz-adv-x="130" 
d="M110 0q-86 -78 -86 -125q0 -18 10.5 -31.5t31.5 -13.5q37 0 66 34l12 -14q-32 -38 -81 -38q-61 0 -61 62q0 23 13.5 47.5t28 39.5t40.5 39h26z" />
    <glyph glyph-name="tilde" unicode="&#x2dc;" horiz-adv-x="344" 
d="M308 675h20q-7 -29 -28 -49t-49 -20q-30 0 -82 29q-48 26 -72 26q-41 0 -57 -51h-20q7 29 28 49t49 20q31 0 83 -29q46 -26 71 -26q41 0 57 51z" />
    <glyph glyph-name="hungarumlaut" unicode="&#x2dd;" horiz-adv-x="130" 
d="M-8 587h-14l111 144h26zM119 587h-15l113 144h26z" />
    <glyph glyph-name="endash" unicode="&#x2013;" horiz-adv-x="605" 
d="M544 314v-20h-481v20h481z" />
    <glyph glyph-name="emdash" unicode="&#x2014;" horiz-adv-x="729" 
d="M669 314v-20h-606v20h606z" />
    <glyph glyph-name="quoteleft" unicode="&#x2018;" horiz-adv-x="162" 
d="M75 489h-20l32 213h20z" />
    <glyph glyph-name="quoteright" unicode="&#x2019;" horiz-adv-x="162" 
d="M74 489h-20l32 213h20z" />
    <glyph glyph-name="quotedblleft" unicode="&#x201c;" horiz-adv-x="256" 
d="M106 489h-20l32 213h20zM189 489h-20l32 213h20z" />
    <glyph glyph-name="quotedblright" unicode="&#x201d;" horiz-adv-x="256" 
d="M82 489h-20l32 213h20zM165 489h-20l32 213h20z" />
    <glyph glyph-name="dagger" unicode="&#x2020;" horiz-adv-x="493" 
d="M262 471h177v-20h-177v-590h-20v590h-177v20h177v243h20v-243z" />
    <glyph glyph-name="daggerdbl" unicode="&#x2021;" horiz-adv-x="493" 
d="M65 77h177v420h-177v20h177v197h20v-197h177v-20h-177v-420h177v-20h-177v-196h-20v196h-177v20z" />
    <glyph glyph-name="ellipsis" unicode="&#x2026;" horiz-adv-x="729" 
d="M124 0v98h20v-98h-20zM360 0v98h21v-98h-21zM597 0v98h20v-98h-20z" />
    <glyph glyph-name="breve.001" horiz-adv-x="130" 
d="M70 624q-88 0 -105 107h20q15 -87 85 -87q75 0 87 87h20q-15 -107 -107 -107z" />
    </font>
</defs>
</svg>
